<?xml version="1.0" encoding="utf-8"?>
<!-- Generator: Adobe Illustrator 16.0.0, SVG Export Plug-In . SVG Version: 6.00 Build 0)  -->
<!DOCTYPE svg PUBLIC "-//W3C//DTD SVG 1.1//EN" "http://www.w3.org/Graphics/SVG/1.1/DTD/svg11.dtd">
<svg version="1.1" id="Layer_1" xmlns="http://www.w3.org/2000/svg" xmlns:xlink="http://www.w3.org/1999/xlink" x="0px" y="0px"
	 width="612px" height="604.5px" viewBox="0 0 612 604.5" enable-background="new 0 0 612 604.5" xml:space="preserve">
<circle opacity="0" fill="#010101" enable-background="new    " cx="306" cy="301.5" r="290.25"/>
<path id="video-play-3-icon" fill="#FFFFFF" d="M306,24c75.75,0,146.25,29.25,199.5,81.75S588,228,588,302.25s-29.25,144-82.5,196.5
	S381,580.5,306,580.5s-146.25-29.25-199.5-81.75S24,376.5,24,302.25s29.25-144,82.5-196.5S230.25,24,306,24 M306,0
	C137.25,0,0,135,0,302.25S137.25,604.5,306,604.5s306-135,306-302.25S474.75,0,306,0L306,0z M222,474V138.75l273,168L222,474z"/>
</svg>
